<mxfile host="65bd71144e">
    <diagram id="URdgg46XL0x_s95j5Wh4" name="Page-1">
        <mxGraphModel dx="1974" dy="439" grid="1" gridSize="10" guides="1" tooltips="1" connect="1" arrows="1" fold="1" page="1" pageScale="1" pageWidth="1169" pageHeight="827" math="0" shadow="0">
            <root>
                <mxCell id="0"/>
                <mxCell id="1" parent="0"/>
                <mxCell id="7" value="8" style="rounded=0;whiteSpace=wrap;html=1;" parent="1" vertex="1">
                    <mxGeometry x="-290" y="290" width="120" height="60" as="geometry"/>
                </mxCell>
                <mxCell id="18" value="3764951d" style="rounded=0;whiteSpace=wrap;html=1;" parent="1" vertex="1">
                    <mxGeometry x="-170" y="290" width="110" height="60" as="geometry"/>
                </mxCell>
                <mxCell id="30" value="" style="edgeStyle=none;html=1;" parent="1" edge="1">
                    <mxGeometry relative="1" as="geometry">
                        <mxPoint x="455" y="870" as="sourcePoint"/>
                        <mxPoint x="455" y="870" as="targetPoint"/>
                    </mxGeometry>
                </mxCell>
                <mxCell id="31" style="edgeStyle=none;html=1;entryX=1;entryY=0.5;entryDx=0;entryDy=0;" parent="1" edge="1">
                    <mxGeometry relative="1" as="geometry">
                        <mxPoint x="455" y="870" as="targetPoint"/>
                        <mxPoint x="455" y="870" as="sourcePoint"/>
                    </mxGeometry>
                </mxCell>
                <mxCell id="71" value="" style="edgeStyle=none;html=1;" parent="1" edge="1">
                    <mxGeometry relative="1" as="geometry">
                        <mxPoint x="455" y="1170" as="sourcePoint"/>
                        <mxPoint x="455" y="1170" as="targetPoint"/>
                    </mxGeometry>
                </mxCell>
                <mxCell id="72" style="edgeStyle=none;html=1;entryX=1;entryY=0.5;entryDx=0;entryDy=0;" parent="1" edge="1">
                    <mxGeometry relative="1" as="geometry">
                        <mxPoint x="455" y="1170" as="targetPoint"/>
                        <mxPoint x="455" y="1170" as="sourcePoint"/>
                    </mxGeometry>
                </mxCell>
                <mxCell id="73" value="5" style="rounded=0;whiteSpace=wrap;html=1;" parent="1" vertex="1">
                    <mxGeometry x="-290" y="710" width="120" height="60" as="geometry"/>
                </mxCell>
                <mxCell id="74" value="4d7e1886" style="rounded=0;whiteSpace=wrap;html=1;" parent="1" vertex="1">
                    <mxGeometry x="-170" y="710" width="110" height="60" as="geometry"/>
                </mxCell>
                <mxCell id="75" value="temp" style="text;html=1;align=center;verticalAlign=middle;resizable=0;points=[];autosize=1;strokeColor=none;" parent="1" vertex="1">
                    <mxGeometry x="-190" y="780" width="40" height="20" as="geometry"/>
                </mxCell>
                <mxCell id="77" value="2" style="rounded=0;whiteSpace=wrap;html=1;" parent="1" vertex="1">
                    <mxGeometry x="-74" y="598.22" width="120" height="60" as="geometry"/>
                </mxCell>
                <mxCell id="91" style="edgeStyle=none;html=1;exitX=0;exitY=0;exitDx=0;exitDy=0;" parent="1" source="78" edge="1">
                    <mxGeometry relative="1" as="geometry">
                        <mxPoint x="46" y="540" as="targetPoint"/>
                    </mxGeometry>
                </mxCell>
                <mxCell id="78" value="null" style="rounded=0;whiteSpace=wrap;html=1;" parent="1" vertex="1">
                    <mxGeometry x="46" y="598.22" width="110" height="60" as="geometry"/>
                </mxCell>
                <mxCell id="80" value="tail" style="text;html=1;align=center;verticalAlign=middle;resizable=0;points=[];autosize=1;strokeColor=none;" parent="1" vertex="1">
                    <mxGeometry x="31" y="670" width="30" height="20" as="geometry"/>
                </mxCell>
                <mxCell id="85" style="edgeStyle=none;html=1;entryX=0;entryY=0;entryDx=0;entryDy=0;" parent="1" source="81" edge="1" target="100">
                    <mxGeometry relative="1" as="geometry">
                        <mxPoint x="30" y="440.0000000000001" as="targetPoint"/>
                    </mxGeometry>
                </mxCell>
                <mxCell id="81" value="head" style="text;html=1;align=center;verticalAlign=middle;resizable=0;points=[];autosize=1;strokeColor=none;" parent="1" vertex="1">
                    <mxGeometry x="-190" y="360" width="40" height="20" as="geometry"/>
                </mxCell>
                <mxCell id="93" value="" style="edgeStyle=none;html=1;" parent="1" source="94" target="95" edge="1">
                    <mxGeometry relative="1" as="geometry"/>
                </mxCell>
                <mxCell id="94" value="null" style="rounded=0;whiteSpace=wrap;html=1;" parent="1" vertex="1">
                    <mxGeometry x="41" y="440" width="70" height="60" as="geometry"/>
                </mxCell>
                <mxCell id="95" value="5" style="rounded=0;whiteSpace=wrap;html=1;" parent="1" vertex="1">
                    <mxGeometry x="-29" y="440" width="70" height="60" as="geometry"/>
                </mxCell>
                <mxCell id="98" value="3764951d" style="text;html=1;align=center;verticalAlign=middle;resizable=0;points=[];autosize=1;strokeColor=none;" vertex="1" parent="1">
                    <mxGeometry x="6" y="510" width="70" height="20" as="geometry"/>
                </mxCell>
                <mxCell id="99" value="" style="edgeStyle=none;html=1;" edge="1" source="100" target="101" parent="1">
                    <mxGeometry relative="1" as="geometry"/>
                </mxCell>
                <mxCell id="102" style="edgeStyle=none;html=1;entryX=0;entryY=0.5;entryDx=0;entryDy=0;" edge="1" parent="1" source="100" target="95">
                    <mxGeometry relative="1" as="geometry"/>
                </mxCell>
                <mxCell id="100" value="&lt;span&gt;3764951d&lt;/span&gt;" style="rounded=0;whiteSpace=wrap;html=1;" vertex="1" parent="1">
                    <mxGeometry x="-170" y="440" width="70" height="60" as="geometry"/>
                </mxCell>
                <mxCell id="101" value="8" style="rounded=0;whiteSpace=wrap;html=1;" vertex="1" parent="1">
                    <mxGeometry x="-240" y="440" width="70" height="60" as="geometry"/>
                </mxCell>
                <mxCell id="103" value="" style="edgeStyle=none;html=1;" edge="1" source="104" target="105" parent="1">
                    <mxGeometry relative="1" as="geometry"/>
                </mxCell>
                <mxCell id="104" value="null" style="rounded=0;whiteSpace=wrap;html=1;" vertex="1" parent="1">
                    <mxGeometry x="275" y="440" width="70" height="60" as="geometry"/>
                </mxCell>
                <mxCell id="105" value="2" style="rounded=0;whiteSpace=wrap;html=1;" vertex="1" parent="1">
                    <mxGeometry x="205" y="440" width="70" height="60" as="geometry"/>
                </mxCell>
                <mxCell id="106" value="4d7e1886" style="text;html=1;align=center;verticalAlign=middle;resizable=0;points=[];autosize=1;strokeColor=none;" vertex="1" parent="1">
                    <mxGeometry x="240" y="510" width="70" height="20" as="geometry"/>
                </mxCell>
                <mxCell id="108" value="" style="shape=image;verticalLabelPosition=bottom;labelBackgroundColor=#ffffff;verticalAlign=top;aspect=fixed;imageAspect=0;image=data:image/png,iVBORw0KGgoAAAANSUhEUgAAAg8AAADHCAIAAAARYycFAAAgAElEQVR4Ae2df1BTaZrv79TW3dqqW7e26tbduv9sbd37x27FNMYM4GkgkYaoJCgQCInhhxEQDBExrZhuAa8TnDboKj3bWVooYATsASkBkQnTS6g2rBJaO4wFwzQTWpZs5oJxEtEC8Q/T88dw6z35cc7JbyBBiE9VijqcH+9538/7nuf7Pu/znvP+Fxodgx8QAAJAAAgAgcAE/kvgw3AUCAABIAAEgACNjoFagGsFBIAAEAACwQmAWgRnBN0KIAAEgAAQALUAtQACQAAIAIHgBEAtgjOCPgUQAAJAAAiAWoBaAAEgAASAQHACoBbBGUGfAggAASAABEAtQC2AABAAAkAgOAFQi+CMoE8BBIAAEAACoBagFkAACAABIBCcAKhFcEbQpwACQAAIAAFQC1ALIAAEgAAQCE4A1CI4I+hTAAEgAASAwHZSi9jzRunt1vhg5jtWPnZ8aIon3Ov19dy9SVefSbVjKcnbp173qX/41z/+Pj8rWKGyOi+HcppXkWl0jH7yiXDgbiz5UNyFNK09p0Gxi7xzs9ucuItP0jvQLzmHHRnCh06IBn7JOeiReDrvzl3+sbgN5z9W1nBUZzg1rc8t9UgZ/gUCQCB0AttILRjJN15Lb5yNCWxYk88Kh14UtBjL2uuZnmey2Q2m4vZWLCn08kf6TEz57dXJfxfwPLPqed+szsvP/1MSVFR8WUz6ye9F2iGqWig4dywZP5eHVS3YMRkKrOju4TE7r4zjmX9fGVvnOSnCHN3MyTtnYj1Z7f7wuvb0k7tp/HUm6EjnYMXR6cljl9KDtCvPm27oXpAIEIhmAttILcQZffaj59MD2x1GxZj0q4bY7M5jIXghgZPaVkfDqxabLRonhiOi+0yEoTioi4haxO1r1Z95/Mt9KT7NdHLawORpbf2HLJ9HA+7k1x836nOOBTwnmp9wKDgQCBeB8KpFUvWR+/aj58vYyrFjQ3bZ/dfHvxpIPsxw2p1kdDRPznaboZiSb6T3x5IdrkCyMu/+a0FJdrLym4K+F7L7r4vbe9j7Pcq5N/nG64Kq9NjzU8fVp0i9xb0J8s6sqwMCdWcy1+MSx7+M2JJO4e0X0vt26b2p7BPZpGt9no92YoqqP769pBIRJ3A+v/j8ddVpV8+aWXj45reX5942vXr7rzO//1gl2+MuGtoo5N8c+fjOyMd3Og+wvewRW3bkzu+v//Ft66u3178b4p++HbpvsYt7hdNhFoyticZeZqk/jztH8S125Xy5Xz1yUD3CKSskcu7K2C7OJU6rOUdnF43ZBQNPOCdLXKpQmHxnTXDjy8SGp+jo4zWxznywrNDTO/GnFnElCT9/dHjgpXBsNefOk/1ymStZjMbpzBozJ3PdBNjMn1vE2qE4hnsPRqML648bJ49WJbjy6ZVzYf3x6Zmj5/2fQE6NvM0qED2eK76U7Ddl8smwDQSAgF8C4VWL7J7ihy+O3TYdbahPyhZjJa15Q2sytxMg7Dn+8FlGtks8MFq80iS73eocecgbOI5fW3BVmZQtTjjRWTC0JvMcbirLvmfkldTnDRl5pHToGCehoj5NbarQfsP2MQzFiK8ySB++PqZuTSk5m9byouKhiZftZY+8GbF5d143fdeIuQwNpvqhaW7kgHMEjM8fXGr94w+yczKMI0qpGbr8/O3Vm7IPXCfT6LyUc5/n3/z9vzz/Id9zJKowf+xt09wTyTn5PqHssPrbq3982/QqtJGohCs83Zqg625CTsmejAsstVkwZheTR6I4ikR5Z9rAmkCt8CwjQ84Zsgs67iYWypkZcuziI77uKZvjKDhSC9GYJf3iBWYCm8YQ7f35U+FjCyeDGqLwrRY87MaqSPsk5eSF2Aw5du4Bf8yedVHmUpqSlAF7xjm36IrYd1DeXEfxuye2GpBjEch1SDgwMHNGe8FrnMqzjAR/Z4Xu5tyZOd11IpT+gde1QROHE4DA+0MgrGoRUzEme2g/qpS4n8yYE99IHxrT8P4+Q26QuT0J9CTvTWmxS9XOQAWzaqri4es8ebb7iWVWTcnuU0PW3Naj2mfH7j0jn+Y6n5HU8ELWoqT0WB32Irvz2H178dUy5yHJ18e1z7JLvIPk3rX+gXSEZOsLJZNvr/9K7jxN2H/11duLSmIwPVH9Q+vzJwKn8XWaKprw9tXnv/dUi+Khf3llkRUQhji25sm/hqYWey6axdoHe+Nc6dN5e9UvKWqBgLCxVrsPtUDdfLc8oBR2MVx+Eh33LShGvDD5jlcivtUCoyUU7iayhMWcfCIce5KQ4MzknotPRXc6nY7Xvi8Pj708eIQoO42OpfN1c6fvBDHosZe0Z6bvHvCMgXvXmsee3R91TZ4eqHC3SVeD8TgN/gUCQCAwgXCqBQO7/IzwJByW4nDr0fumDNSRR9a8wu1JoKOSrHvuQAUjSf1a1k619XkDZfenDhCDUYxYpB/PhBU+x5HwsEeVd9hjL1v9umJoIMmHzxEYDTrKVHw89/aSGu8XI3kgTHys6vetr6hOQwHSj09PU+ygUy2oEoKpf2ia6d9HjtKHGrfgJLTahVSnwUeU26EWDb59C+GdEXaZYk+CWyccNYW0IeMcefAKDRmJ7nTuJptXf2pBPoeO0eI+Tx97ud8tCfs+PzzmdFNi5GjcjDoMxTpRMD1XfkPokYjHvzGne04b9Tn5wWvNfWHMoax955uPT08eOw8jUevg5gYIG0CARCCcasFOabdL1adIqdPowp5ip8VPT/tqjXI0ub7g/guBxDEwlZ52216sFJOvjTkxJnWNLDGyz/JuGMvurx1TEs4H+WQ6t8ElS9SnIumUQLt2/KqEcrKzz0s90+dO9oE7S03fdWJ0dsqvLK2Tt/e50kls/s/WV08EGOkqXuelV3+5WMOjJOvwLahqkdj8n02TnYmupND5oaoFP7HDnnPF5d/gKaxDLegYLUHBVn+fo1sTP14TDn1PCjB4qwW256KZ8AkcufWnFozCvedG0u9YBDq7+DFKXPx49WChWzjRUJXgxoVddBH7jmf+afSUiqPGuePXvZWeQpJe+stTRoNoPbNgE2/ozxjnTg5c2Eh4nFSz5JqCbSDwvhIIp1qQfQXncx573ijr68RfoZBk36PaerLrkHRWqH0tLCFCGnRsL1v9QtpSjQ8fMZLO9xyQlPFuvxBQziGsCRoEc0kLpS731xc8tB+pCGXciUiNlAIajHr1g0So+HjuL5fVRNc7Vol8C8qc14L+669eV/nyLY5Q1WJPzZOmP/47byO+BXvvjVVRxxUihozet6BEufFS4CNR3r4FUS5ODFeRcPERf2w1rcjhZHirBQdFI1op96L5VgtRYseqaOhRcpkillu4ex8/hvNl+hhZLbBdOUM5Y9+zjvRkjZlTuG4VcVjkiPkWdGw3M/+To49nTgSVItAGIAAEghAIo1qgSU1rxZdJvXhufZ72dYHc0WcUZ/StlTW4JzJxkm+8qLg34Bzazu4sfmjPk3Pc5iwmb6D4/rPsPLJ+nBIMuaLTSdlJeZSuKAqYO2WJRj9cluAev0K5okzEct8ixA2m/NTcX65+98O/egSrszovvyLPmGLvu2lpff4t32P6E+5beKgFjdd46fnrmhoi5vFB8dD10OIW9LJHQhR7IAwu8gDIUW5ULj9qESdLlCtiiII7FMIRf0Zxi5wrpFc0OF8eHrMflruj03hL8qkWjCvpY/a0IiJLNE5nBsW3wGj0kuQBu1C36jm0hWcmsnGLfR2TpwfO+AhoBXk2fPYeYCcQeG8JhFEt0KSmtYqHz/KU1WzJ2ZTzXx/V2o/fULomseBxi/vPhFWnsOwyTsNUmXbNHahgVBhkD9cqtMbsqrNJJdUHLhuO339NjpbjNqUse8h+7Gp1Ukl9VrtRUELMxEUBBhTSMGVXnEqu6sn7aoBNvM7N4bTbK+6N8U6UJeSdSpZ3Chrqg74uTthTZHkP/Gqp9dVfmsY+p7wBR+fx7lhan//nxzXyxKwSnurfrz9/e1ldQsyJYrI/YLI/KHBEudE2jXAmOAd+ZWl6bqlpvsKTKg4r+2vm/tIamlrQGCXJd+xi7feckxfijlzA/YM1UpSbTWOwaQwU3kDzjtA2YcR35dzlj63ldNxloTlRClaDWYjmtjpOQGohfvwy/eef7z2i2HuyJ127Jhq4G0sYWTypuAtpOnt6GY+crEMJBB09e7mi3Vw5Jh86rLVTR6KQXUYRi8f2wycJjSSeOjRkFGxOVNoG50TFHRiYOdVVBFFuSqsGpQQC6yYQPrVgyKdkQ2M85TfHhuwV918X3zZkV5UR9hGj0ZPLeO3PpPdfH789llVxltf++pgzUMHALpukQ1NCPDIh0z471v51Wh7hZ7haOSNePlastcu0JmEVMe3KeTRZgiduL7v9DSebOu6UXJamNh7Xolwd/+prXonPIDlhuVy3I/YU91/949KnHgEJJFEiXjN636LV8b6Fkvy+BU8w9pfWV9QfRW/4B9T/jt7VeP72XyafnGoeufzHH8qEhGUn7u6dnzgZC8Ue7KKxl/yukeSG74VDrrhxzlCOM2zgCB4gAdhP+lAHPePz/a53NfhdD5KPuG038jP46h78qF2ke5mh7ox1TWqi0dnMKxZXQMKVsnaI+BrHPkXyDceLGnbBwKMU+V3ene9TSPdF868KHwh0DzDS1ClSGfnBXqcI+kKGv6afcqJgeubYBl7U8Jcg7AcC7ymBsKkFI6HhhdfrESRz8J7y3TkEvOMW4a0yH/F5Mpw4FnqX+6uPfE+Q3c8bmjmtvbA+p9CRfyQz65tJ5S3PsAcIAAE6Fja14Bz4yn78ahkw3akEIqgWdI4i4effC3RPEvcFUCBWFl87c2rgk3jPd/TiEr8YPf3k7gG3GxQgEe9DrCLx45njN4piU3bDYNRObZze1Qp73gGBsKmFhPeVSXCCEkuAprmTCIhYrea0k9SYdnjyz469+Ci9dSgxgzq32EfiB4ty7zR7uRf707p6DuUTo14+Lgz45DDyPxENjJ58Al+LIjtzsA0E1ksgbGqx3hvD+UAACAABILCDCIBaBOyWrrcbC+cDASAABKKUAKgFqAUQAAJAAAgEJwBqEZzRDnIVIatAAAgAgQgRCJtalBwvxT5MjVAuIVkgAASAABB4twRALcC3AAJAAAgAgeAEQC2CM3q3eg53BwJAAAhsBwKgFqAWQAAIAAEgEJwAqEVwRhtW9SSeJJcDsZwIEt5w1cCFQAAIrJdAFKhFYu23N9+Yz5UQXzBk137bYv41n/y181C5MDNum5tGfhba1/2CzKpmVWosVm3NRrIRJOWtt78C1bjZ0CgJFeNm8s9vMizqVfytLyPcEQgAgUAEokUtfmx5dN29dOhm1IJ/29Ly6DKohUejEagnLFMtW6QWU7ZJNajFZhQXrgUCESAQNWpx842l5rRz3dP3RS2SeOIU8lKvEWgfLmcC1MJDPuFfIPDeEYgOtWh5/tu671dvft+ejg/7eKoFS1J697dfPF+9+XK18fvRjxXZiS4jiNHoH5U01zwxN738seW5+bPWs/lU3yIx6+zHD35ofPnjzZcvv3j066KCEK0zptStLC1TfuZBOfnrqhnSRq3BZLauWBZMhsFGWYrT1rOqtJaFUc3wrMVq0qvL5c0TZqvNbOiQJ6ETWPndc8uzPcp6zZTJYkXpz+k7FFxiFC5CLRiphbFbqezWTZnMVtucvrsmk3JTVqb8lm56zrqyZF2c0fep8kmg4vmKZo0eXbg4NzWuUZdkkPhjNHapsk9vXLQsr1jmJ3qq5G3gW1D4RLATEKHWAslGJ4EoUQvzr4+c/nXjm5d1tfvRanfkuAVDUvlkteWptqgk+yOuWND4bePLl3W1hxzVmVjQ3vBytWHouqBAnF5yvvIBko2b7pEoVsWn5tUvRq4LhNnpJWelI+aW598eTQ3p6U1N4UuUoxbr6LVcvjgT/5H8AFZ+x6TVpGuWl2aKSivr+6dsFkOjGJc6VpV2adk22Vuvah83L9vm9C3yojrtvE2nRIt742phM09pr0n5aQxmaqbCeW2E7YtAPbG0bJszdF+rUijVfYaFlaWpjlJ3SCapvH/eNjNcL8/lS4rkTcOzloVRpVP/mLKu2aWFiR6VXJZfolB2GxZsM13laa4Mi1XjFoRCIcsVlVY1ao2LFuuK50hUkrzHMK1Ti8hyG50PpAsLlA4IbDsCUaMWfMahokerN592ZTAoasFWjDZRYuDYkaGXN5/2ZSBLhx0ZednypNltuTBGtvTJqlstPqr7bcvTPiJaHl/xqfnHf27MDrEW/Ue5sZrhRfOg3D1dipXbMrk8eysf9dZx30KjYNAxhkJrNfVLmRgNU+psM83IVuJqMe0405ENVlH3jOvaYBmLqTBUoNVwiV9Zw6mQxA+pxYJGEe88OVXaN7e8iOcN7clQjluM3TK3eMSX98+vGNyxh3ieGHeMHNlLq9TMWSeaMvGkGCU98ysz7YWEDHBrdQteapFSq0UaU0KcBlYVCACBLSYQRWpBTyzp++LN6md1h0i+BZN/9+XN578WuA0ZjZ5Y+23Lmx+kWXSMIfn46Wp9o9PPwG0ZkxTlZh4ZWm0ZOksattpX9OhH6p5AptavWjAKe+ZteiWbMO4Muca6osP34GrRJ0dqIddaTT1FLrXATSpSC+uokmR8MUZ5/4JNV00a+fHfhvZnJ+RJyD+MS12VlsgSNRHPuAWjpH/ebdOZikGbhTLOxlbpV6h7SKAYcs2CTVuFD2RxGw1Wp0y6bs1vgpEoKnwXGRJDOAEIbD2BaFILjLb/6IOXN82/zr/inkHLPDLidDiIR65c2/TG/HEBE2OUnTOvflZHXtCNrBb7jj748eYbz1/LyHmSfgR6gP2rBdIGj6jG0vKK3jHWhOIW61KLEk/tiUAz8lQLmqhtyu0TsL2DNEvLK5ZhhdMVYPDkqm6tYXpuweYutVPeMlsmrdNOP8OZbVCLQI2KaMYRqGVIHAgEIhBdakHHhO0Nb3784qn5pvN9C2T9bz7Xkn0LNno/4/dSLh2joXGnLzolJEBktcDyH6w2jfwsLSs7LSubk5XN4R5CP1ZIvXg0plSpMft83wL3BvQqkTOekckXcHkCLi8DH+dZt2+RUqe3EoNCpLJ4G51NjURRZ9CS1QINlJmHayWO8EwmX4wXR5DkAMVWDJos86O3lHJZLl/A5WRwFRq3M5RUq7MuairJAXNQC++Kgz1AYBsQiDa1oO1DYYk3P7rUgp54Wtv0xvJpudvE78vHvQ189hQzvRPpioDlrgkU1XC/b5HW+gOKW7gG61H8nHsoRMfCEZGeWXZ3nLHSKkVpisMsclR6m3lQQcRLaJiA6xyYCq4WRJp0jMYsbZ5eWtDWkMem/Pc6wzYSRfEt6OLmaRS3IIFK4/KcURmHNJKH3VJqdVb30BnvmsFm1tUSs6TwSIZnlNt/iQKqo7taYQMIAIFNE4g6taBjWc3//JJQC4yRXfpo9ab5W+lpSZqwLL/zt01vLDUKNHUK/VLP15h/bPleK1VU8MvPF93+beMb8pyoszXm1cZHXUfLJRklZ4tu/77p5Q+VQnJHOGAFMApvGVfMhm5VlULVNT63bOqvdEpCalHHpHXR0FuvKCqUVdbd0pks833yEH2L5RWLUdtWLZdL5aouNG9Kr+JHOvwbcCSKjiXJNfO2OX2HUlpYWiRXdU2YrdNtuQ5QPJXeZjF01OTzBJmFCmWHzojGo9yBltSi7hmrbWa4RVlZLsdRLC2vTDZT385zRLnbIcodsL2BpgKBiBKIBrVQaJvIM5domOC2mbInXnz0Nv6+xRv0vkXlaXJYm57IPfvxyA+NL1dbnlv+eaSrcsTc9IB4LRzjVlQO/bbBvNry3PzPj7SVpynvagTt2LK48lu6WbN1ccagvVVFselpRfX9ejSUb5mf1g93KHOd3g+rSmOed8Yt+ucd05+wmsFFg3tOlHWiX42/oGC1mY3j/cpCko8SKWvi9eUP9H2OGZL5ZnHL2wbHZ+ZtloXZSb2mrZJU2JSSa734oWWbeWq0R9WiMUz0VLq9PXqGtFFjMFmsCIWuq6V/yllYAm9KvX55ZQ7mREXUFkDiQCAwgShQC8KmBC5qVBz1MScqKsoVuBLTqrXmhVEVCjXBDwgAgXdEANRiZxmg91ItOCrdtKYKvZwIPyAABN4ZAVCLd4Z+Q7aPld+in+pzvyW3szIPuQUCQGAHEwC12MGVtyG9gfICASAABDZCANRiI9TATAMBIAAE3jcCoBagFkAACAABIBCcAKhFcEbvWw8CygsEgAAQ8CYAagFqAQSAABAAAsEJgFoEZ+StsbAHCAABIPC+EQC1ALUAAkAACACB4ARALYIzet96EFBeIAAEgIA3AVCL7akWqVyRhEt8SWl7ZhJyBQSAwHtEIPrVQpLV9zpPzgn40QhG0tVnsqGxlP1ecpp0KqPFkNduyGvpTEryOhqWhiLk3ZiSHs+iJM4s7Zq16OuI73hTjgYsy/t1ZraYq68+rK8+POhY1ZxaI4GP0oWHW6eKJVTy62HLzGs/ee9Pl757c/I4+/3Cvh5KQCZqCLwPanHPfrQqiFpg56eKbw+wk73rlYOVnE25PCW7P5YSCbXgfHT9Py6Pjh1OppobUIsQ7RG2P/5MDvvfPsszlf/U+0vygY/S2dhZw6Xv/lCQyfGu9+B79tRI9W8+qT+9O8SswmlAYIcTALWg9kZ9V2fJ19KIqMXuvH+7MPknqYTnaZsirhapXL4gydu8+i5+UERJp7Lav/HhmQW9MDwnMK7V+lYLvDgBj2bxWv90ZWTwoz3rz0ni9Y8nX0klVJnfIMD13x1uBAS2nMDOV4t4pUl2uzWW8rwxktSvZS3KGLRTknXPfvRydZp6qnjILtM+K7h8lmolxZyGrwXqrwUN9X7jBP7UYv8p3g3jca294v7r47e/4eUF9mA8JYFeXPCbP1/qUDGptY4Wm/Nctdu9dhBeTHapCl/fYnnFMj+tbZa71pFlynsXLQZN/5TNsjBxq7Lkmg4tGjHZq3CMaInV00sLmmvV3Yb5RcvyytLy4mRvra8BHGp+vLJNQY2Oxp83Sm+3xnvtDyUdZgZnopZ38+gBXa3gxfW8Fxd519I/cF9YWpH79uJH2UTKP71Zl/e7owz3CfhGQD3AAh+lJV//+Ls3n3xaELyY1JvS8Oq7UF++/guJ4sC1QGAHEdj5asGsMsr6OqmmisG+YZfeOIs/3pKse2sV95/lXa5PqajPuGGSPbQfPZ9NevLTk+T1aQ3GQN6DT7VIkmT12cvaO5OF2fHCswfUJtl9Y9phD0MWqCnkDv5s8k+leV6dUywjU1QzaFoytMhcK107lux2WBmxagKJQVWhJLNQXt1tWLDNtBfia+chtVhantWq65p0piXroqFLLqvqm7E6V3tFamG1zehaFLkcFg0TVHYYFlZc15KABMqzj9P2Vx8ZepYt2evjUAhmkZlzaOUXBSt1vCbxhxePHtCrCt6qeGdcSwFugVrQOQdbX10Z6WWvO//sj268utx73UPs10kvBETrzhikCQQiQmDnq0VMhUE2NJCA0ej7T/HUAweEDDrG5rTbj1+V4I8ZUovjVyW4n0GjY+yUltcV93o83QjJQFmAsSZfahFzYkyq/SaZCHWIM/rQjUJ+thPr/+PKd2M8n2Mg/kei0LLVNp2SWOxBoBq3LGgUSKVw30JXm0qjs6R9c1ZtTTwdY5RrFkz9UuROIbVwrefqaExi9bRlAV+nL6iNYyRcfVHxcC3knykjO2ia6ASkFtf515yLeNOY+/f97nqeXux0L7ZCLbDd5YbLk/8hdC2+G1K2US2z2df/dPlee1zINR5yyhF51OHuQGCTBHa+WtDzkKFPTqLFnBiTPVwrVorpmDijz14gd/QW8ZEoUpQbP22KQ1h5nOC61QJZT1l7PYN4sBnJN+wVlD0B64Z9sPXNlZFB311a/2qR2Tjp8hUct2YVdc8tTzRlutRiWIHUoqh7zopLCBrXWnSrhcXQKCblipXfMWOdaAppTboYriQhz+t3YqD4/rPsE2Weh4RiZmiTAnC14J1JcOeK0XQxb/F0vGO0cEvUgpY3+LN1RiDoicWc8t4q/ZtPLhW7cw4bQCC6CUSBWnAbjt438bL3JjW8kGpfy9rrmcnKvPsvsvMcg0KeakGXDJQ9NKYdptbr+tWCfcPuo6P9VT01KEK9CyEtNDrncPefr/ymC/PZM/WrFqz87hkUcvD4TbflbkQtsMwWD+0h5zD4NputflGmPkuSTP/l9ZOal1rsuvhJ3krVh1upFpm91ZPrmwUb9+kfrkz++dK93o+oQ6DrLr7P2oedQGBbEogCtcDKsofsR+RnBUMvBOd7irUGzgl8WMnpPfhWC97m1UL9WtbegB3OjnX+0mO56bH7Qx6+D+JbtM9a9PXe71s4vIG2Ir7YGdLgCbg8AZeT6h6JWo9vkVqpMVtHlUkhNM2IjkSRfQuKWhwpy3772QEJoTThj3LTMVrev63Xt6DR2bt5KunIn3/2xTl6CPRARYBAFBCIBrVAUYqyvmfSoa/ZyacEQ/bivmey2w2uWVIRUgsaUz4lG/ommfRCXww3fT29bOyS/7gFXayeWDJ2yxzuEYOvqC53TnyKl2sWbHoljzCg8TxBisNg4XGLgGpBpEmjYwzeNb3Noq8ThNSOvUaizmb12Y+rqz3HoByjVRsfiaKoBTOL++IXgl+lu3KYnKi7WhDeOVF0R9ziDxuKW/w/iFu4qoZokLAnWglEg1rQ4pWmiodrZQ2nYjAGW/264uFa8WV3tDmoWjBikhgxkq9RlDsZbVO7ivjRkm+k9w0cj6NJZVl9duntrw+UlGF5ZzmXDWX3XwjWMzUod/DC5KtSie9XwzLrDWjya31NVV2bbtayMKp0SYJEPWGxzmrUCll+oby6RWu0mYdr01ADDUEtllfmdB2qyj41VqkAACAASURBVHJ5ZW0bmjc1fSvfM+Af2mMfkzdwXOvr7ffQLndDDjwSRcf2NF3Me/vZoaac2CNpH/6qOvfF9YLfFRF1xEygMRPQOabyWCyB5jEMGPioMw/OOVGJ7iyFusHm3Hh1ufs6vJ0XrcYRyuVBICrUgi4ZOK41ZaHZULQYtP0sW+I2KJIMjy9/5PUUa42ukahs3m3PeT6yG9WuCVT47FvqRKCyhjLCmuwvw1/jeC3Tvij+aiyrQuy60IOyn38LhPfeXO72fN/CdXKGtFE7ZbJYTZO6bhXFpmOlym7d1KzZapszTmi76kqdQ0lMWdesQzlY+R2T831oohSjvMc42+OaE2Uxatq6RifnbRarbc6gaSoi5latz8qnH/jq9TE0ocCV241uMHO4iypuBXH5rk+rjryo+pDQMFZsU1X24vW8F3WHfyXEbl488ruiPY77YuLDb39RQP1lfuaavxD4qDvn+PsWVRt432LPudLRP39yaQMvahCF3Sw9dylgAwhEnkB0qMVOffzoeYPoXW6Pj0RFqtbRfFnqnKiNc+MkyZUJoc16ilRxNp55ko3O4nW8uvybXrbPecyBcw7vcgfmA0ejjgCoRViMzoYT4bAv/eGy3pC13+sdvfA3tXCqBcngbrjs7/xCNvbp1CX9H4S8jcEvl4y8uXBDiSVyINAdFe3hnTfI7Z4BUIt3XkNZnC8MpVvhXgiU2snh2tBi2uHXqnfO2TsDQt6NMUme10e6Qi47nacq7v6Pn+lfSeEbtCFDA13ZuQRALbyNCOwBAkAACAABTwKgFp5Edq7yQ86BABAAApEjAGoBagEEgAAQAALBCYBaBGcUOa2GlIEAEAACO4XAjleLkuOl2IeuL5hCqA0IAAEgAAQiQwDUAnwLIAAEgAAQCE4A1CI4o53iJ0I+gQAQAAKRIwBqAWoBBIAAEAACwQmAWgRnFDmt9p9yKlck4RLfStqemaTmii3O5We4P8/lv2jUqyIzwBrS3Rn8PVwRfT2fDQ4p2aAl2nGggpYowAnMjEyRIMnja48BzodD25gAqMUmjBcmqe7WTZnMVptlYVY/2Kjghuup8Lsa0iZyG+FWmFSrs5p6isJFYB25FSV2rIoG7q57fWxOZ9aYOZnrG2lM0VB6x5P0jidp8pINi0T2mf8x9QXNY3nEdwfKd0k3XLqQLuQ3GWyTzaKtvTUz/YDpFwUT4g+cG/kx62hOW5tVV8bQh/rffnagFMM3VAdLKdnYK/p7w+3/Ld7A18xc6YdUWcFOBrWg1Mp6mAqUo2brtEatkOcXlkprb+kXLVONxLdv15OUVx5ALYI1XBJePqY28zu+dH6YNvQLA6rFrn2yvUVX9g+sCdQK0r28asr/7TjFf/ds+m++Lo71uBzUwgNI+P/FRSJPJ9zl2NCLd/mvpvDffUP3wkWijnPEoRaUFcBQDuNpA9/81YvOf0zfUOLhKiOoxTqefwp0ftOUbVLNJy5nsAUp4epZv59qkSDaneB7tQ8XeU4Mp4TJ4Yfn4Q+oFvgdOQmt9g2qRdI/jj35iekLuvdaipFWCwZHkMnZNnPK351vIfhVGg1Xi1xiNS3iaXW1qHDu2YURy8uvN318EbBPEjFcLVY+SdrnmTHGob83Tv9Xw5k96005jOeDWnjWSohwGaI2o02v8rc+hOdDwsptmVmmDNSkFdVr9LNzVtuSdXHGoGmS8liOWzPK+xc8lt1e0VWTYxjsUlWf3rhoWV6xzE9rm+XOZfUcqyEZNP1TNsvCxK3Kkms6kwUtqaTwXrHVd6mTCq/1js8s2Jastrkp7a0qvjNLNKZi0Lakr8PXXMJ7N4zy/nmbO1cC1YTnUuHGjtKQYhiFD4SPn6aUdfIGVkVja+LH9pyOnrgEInu7zz0VP14TP14TdjzgDdkd21kXC53VlKBIbhg5qB7Zf/GC52gD90te16OUcz1pXRbBmF048CT5CN9VuWzmzy2OpIi/dzq91jXyrRa7Tz7I6Bhinxs5PPBSOLaa03UX2+fxFdv4sqa/WXv0d6c8V+0OCgotamIwma0rlgWTYbBR5lwCi45x6/XWWW3v+JzVNjNcJ6vqnlywWebHmxwLnzDkGuuKob22aXjabLUtoYYx2lbEJjC6Cu5jD0N0bXhC217fNoiq3rIwq2supzSYeJGyC28VyzazcbSHaBV0jMZT6W1zg3Jnw0hSaOYXddXOhR3RqsCeC8hPNHG3oHeMROL6oU8TcLXAN7bgpofEh19c5fcKGRvqMiK1MJbtoeNqYSr7qY9E4su++Ju1R//zrGej8lGnAap7M4dALTbKmlnaPmuZH20q4rhMKrlFMiXN0xZDvfuDr8hMLPTJ3QY0pU5ntU0ONtZIC0vzy1VdE+Z5jcK5qBGWkSmqGTQtGVpkzsW3+RnxROJi1QQSg6pCSWahvLrbsGCbaS/E84DWzltantWq65rQuniLhi65rKpvxjrdlElc7re8jMI2g81i1Fwr4mdwRXL16Jx1Uet88oOoBSuJJ85vNCwvaqpFzgXDuWxfWLyzgdTCLrgzkpgjotPZ9IzPeUNrwtYrJNPP3hUnYnWsiR+vHr5yJS5DtrfsAjPOVYq4Euzkl8mtFh9xi5whweM10dCTlJOXEuQ9SGl0TxLdXbYE0Z7Cu/zHlv2FJXs4hei3z/tjtL7VYs9Fs/ixXdB1l1V2KfHig6yxNdGdTso4WPw/ffPkJ8+uf+CubtcjGhgUWsPKatI1y0szRaWV9Uj1DY1iRyLcev3yitnQrVL2TVptFqP2WlF5k95mHpQjNwJXC8vCRL+yRBDPZCUVqoZNS8R6i97YSXsYJT3zK0vWWV1zHVqocXjWsmzTEUv5cpTDi5apPlWRSJxbUtM8Prds0lQSOsTKbTRYZ3uKMIyGyXtNFn292FVYjMEWZJbfmlqZ6ZJLXMvIp3kxcVUlKUvuFGj0w9UZymrXqsmk/QGvYqZ99LvqfYcwGtqo3Zcd8GTf993AJayffvaxYOUXeaaPk46s28nY9WlV7mAWjY45Nnx7zwf/wTj7V4YznmObCAtPOTg9OVxHwA+V1XqKD2qxgWbhvITBr+mdNi+vmI3j2t4WlZRPcf8zGw2EmUYrYM/1lrsNKKtSY1nQoLXtnJXKTI0n9yb8j0ShZ9umUxI+jUA17koKX2lVV5tKo7OkfXNWbU08WjtPs2Dqx9fOc93LfVPKRlqV1rI8SwpTY4rBRdc63kHUAqW8wQGWwgfCsadstxGnY/SiBwLqHhodWW1h6yV/y0jEyL8XDfR4RrmRWphTuK5ef8KVdN0a4ZTQMdpGR6KQWmhH4lyTqeiFDwSPX3JyXDeiY4yCv3sx+9cDBb6B+wWF1QwvOq0/3ipYuS2Ty7O38vGGgfsW+Dbnmt420y5i0egC9YRFX4/8AKQWNoOKtFp7Elq/nbLHn/nA1WKyGSWIZ5ij1NmWphqddie3ZZJoxnSMxq4ZXrToHCv7Os5nlrZPW6Y6ZNKOGetEUy65GdMxmqeT7ZuJv7zR6CVfS7Vfs3fMulu7soUHfne1YOWzw00ZH1Cer/UW3Of5H/Q8/Im9858Iu+G+Bf+aftFiaJT4J+kzwfXtBLVYHy+vykjlltSoOvp102brillXT4pyIyfd2etHj7rJsdyp83bcOt2CbQYtkV3oa36hf7XIbKQ+vXRWUffc8gTuPQRZlztgSXG/hOz90Oip1aOWZYdfElG10D3Y67K8CC/jSvrY6sFCwvg61CLniswLvrNEftVi7Emi2wuhcxI67KLWS0SvbRNqISIPWzEuHNStHZa7h7kwzpm/XZv9b60HfQP3pxaMwp55m15JdNsdHoPOscehFsgWc1R6Z8BMoJpw+q9ILRY1lWRLjSl1yPNwaYDbrHhtOPsfxH1RvTu6GjR6mnLUMt8tI5knsXp6ab6bMswYX95jRGv3Tjp9XPItNqwWMVwxJpQkVBmkWsOBPAkmFMe61tAlpx/u7Q8Opf30CPmX+gGJ6gfZaT+VBP3lfKT/LO/tL0QTZbGkbpC/1rue/cz6X/9k7d/+ITvcpQ4xD6AWvh/pEPGRTktFLrlNW0UEGNKqtOYFjSIe7wMaKY8cRqOn5tbeGp6es64sLaMgQVulK26B0vSrFqz8bq+x4JWl5em2XHSVvHfRMqxAvkVR95wV911QFGQxBN+CWTNsW6IGG1hSjdnZt91StbiQNmZPKwq7WrD3qldFHZ8TDkq41IIu4wxRvJb0C/99bfZv65N8Ny2/aoFiD57hn+UVvcOPXLdaMBXDNsuG1AKv93EVHjIRq70iUssrS1T9QM21fXbJ2bHwMGQbVQsGW/264uEa6WcXlpBEyzdb0vO4sROS2RMeK71fJA1ksZI8j3qc7PEvmuO06SyRU4ivvv2TtW/+XuwBeav+BbUgV8bmtvEHgzJLCo0a6ZXlbVNoyrnvXh6DLciXq7rGzVaHxXdUPB4UcQwyUFsbihxaJ9qK+M7wQCZPwOUJuJxU9CBtSi1kXaYlyuAYPa16dGnZEZZkoqOkMAxGjXIjbrgR7F/3+xaFD4QevgWnJ+uxhZMRGbXo+pyIiOBqkeLnfQscu9+4BcW3cKoF8VoGO7hv4QMU0nWbXuUK/GTy8ZrlOUNW61YLftvUiiugFdCaePkWZLVA7ouxW5Hram+osfEEHkEpbp1+YXHGuGgeVhDzIJztdqNq4Wr2O2wkCmV7X8Y+3Wd5b6/ye3M2FvF2ld3bHDEbcN/iXc2jBbXwrpJQ98SzKSE7x1NXTXj0GI2OYt0Li2arY6SIeGhZXPm1ahER54iXaxYoIwmoT+d2Rxh8RXW5c+ITOtOmJ4KQdCyeJ3DOnNmMWtBTKzXmZVO/1O0bsZUkbyOtWmshlYKVWa+3UmdqMVDGnMMmNHpakaIml4LCD1UUt/g+kZgExYlreCnWDrmjAviTg6x20JEoSpyZjtFyhgSUkSjctyCrRRwa8kordM7Z3X3kyl6Ox/zdDaoFo+B/vZj966/9xC38gkJDTOZBssHFBFwXw+BqYXN6ITixVGnfHHUOnh/+dCygWuBO6nQbKRrBSuFR39hHYXDzcK0ANQly+3G0drZjQMzZ1LnlykpqeM+/ZXRkeIepRcyZ8swXvyhYrOZURGLcDMUtXvuMWxC2xW9FB0Md/EJQi+CMfFPmKHWLc/pulbRQkikqlda26UyW+T7XvCZX5XHr9NYVi66OMiWRRkdv9i3bJnsbldLC0iJFmw7v1zvnROHXZtYbrLbJ3no0TUU3ayHmtzAl6gmLdVajVsjyC+XVLVqjzTzsiDqGqhYS1ejkVF+NU2NcWWXwr+ltS/OjTZWFaPZL+7h52aSpcoXT40tuGfEZU9JCSX5tDz7L0z2DFmeIpsQszY+2VSuUqj7DgtcodpK8xzCtVzumb7luSkNzotaEd0bYRYq4I5fY6qfCx6u8MpGLOZvGYNMYvMQOe06DfBfaJvscGH6UvRtFue8yPY4GVQs6P6F1VTT0iF12KeHiA/6YPeOca2IunbivUH3B4757LpoD+xa0Pf7mRAUGlVrUMWldNPTWK4oKZZV1t/AWJXdMhwuuFitL1ul+lUIuLa9R9RmsK8iCuzA6GjmrqEVvnLhFdAjwWgioFmiyjW4RzcetKi/NL69RayatNj0pnJ5WqZlbGFehebH4PEBjh4w0fw+j0TOqtWbrrFatqKlu1JBneVHz5u8x3C9JPiEhRQ5Cu8pfapHcj+1P7L145O31XN3RcIcrXNk++A+m2b8yVPiaE4Wi3GaIcrtIue0LdePdrW/B4pY34VPU0fR2f1/+cDoN7g67O/NMQWWLxjDrmFk/qetW5nqeg6beT5ksVtOkrlvlmFbvfFSwUmW3bmrWbLXNGSe0XXWlTplhyrpmHcqB5mLO96E5V4zyHuMsJcCOjzJbFkbxJ9ydH3wjXqRyzaz3CqXQsRT5LRTMt5lRlEXRY1wkT81C1eSamG82jmuIt0Bct0ip1aLJviXUETnct+BcfJAxtCoaswsGnnDKCt2B6F1lj0T4yxbEWxGPn7JdAkZjXEhDr2hQfsSsp5y7fN2jBCLKzY5reCnsII1E0TFanIylfpqjswsGvj94Tk6ENHANo6ZMfCNkz7mngq4vSS9nlKTcWc26SIxE0ehBpsb7B5VWVN+vn55D71JM64c7iFaRUqdbmMbnRLGVw4t6fMAT9Tl0+CxtfE6UvsvRomyWhWldu0JMtdooVFbZN2elzH9FtcYouWVc1JJ8Ypa0e47cPOL5Ne1ag3HRgl4MGu1XlxO+RXzJrSmTXuV6L8fjX2dzZZeqNIb5RcvCtL63XkbuEm1f0+9qtOvI4b6MAxMXuZ+luVvvOq4N6Xaul3h8fv9D1Da1QsxkC/etnUYYfIsgarQ57hnKUYt7QGlzSUU0n+8uce+4RUhPzrvLcIjZS/rHbx795Jmvd7kj0Qx8zIkKMZ9w2g4hwOD/vQm9y8302X6Q6+nVD/B55mZ2glpEyu4k8eXVHfqFRdKLTjukXW6mPa372mhVCzrGLvhfz6b/+psTvh/vdYMK2HhALcLLc9ullvRPXz/8yYu2f+L4bgZi9fhkV7nXFAPfJ2/c4oFabJxdwCbFym/U6rQ9ysKIV2HAbESodOFL9shQ1p27seFu1tuESXrF341d9/GpqLBnj1HeMzVxa90T0qIUe9jxvvME9/L/Yazz/2T7HIPawkoEtQif4dvCanvnzRcyAASAwPtGANQC1AIIAAEgAASCEwC1CM7ofetBQHmBABAAAt4EQC1ALYAAEAACQCA4AVCL4Iy8NRb2AAEgAATeNwKgFqAWQAAIAAEgEJwAqEVwRu9bDwLKCwSAABDwJgBqAWoBBIAAEAACwQmAWgRn5K2x7j1JPEkuh/iUrHv/Tt1gZmSKfK3OFJWvkrxXhY3KGoRCbS0BUIvNqAVaMNWqrYn8Ii2byeR6rt3sagTrudfWNnQf+v1eFfad04YM7HwCoBabMXCgFpuh966vBbXY+fbLRycAChUxAqAWm7FZEVeLJJ44xfNL5pvJcLBrI2xAGRxB5vYZuItwYcGQAYEoIwBqEcyA+hNqTKnzXEXZTF0GGS1Qga8aZFkwGQYbZe7Vh/CVbbS943NW28xwnayqexKtZzDehC9iwcrvnlue7VHWa9DiFugWc/oOBTfiC8KgNVyXPUrkWGbVSYCVida3QAuJWxdn9H3EkhsMUZvRNjmMVkAyT/XVFNVqjDaLdVarxJc9QJ9HXTG01zYNo7Ux0Fog86NtRa4l4YI8TkxZ87hhsOWaa32FycH6UsqyDexSVZ/euGhByU5rKYtqeCzOw1PpFucG5Y6PPAYt7EZbhb/WAvuBwM4nAGqxYbuQmsKXKEct1tFr7lWLSX4AWo/IatI1y0szRaWV9f3kVcO49frlFbOhW6Xsm7TaLEbttaLyJrTKpjyVRsfVAq04dE3KT2MwUzMVzmuDGNZNt0UGW5BZfmtqZaZLLsl0rMPMI5aSTSrvn7fNDNfLc/mSInnTMGk5P6QWK2jVPGW9xrhisU5rqksU7dOW+W4ZWo4JqYVlYaJfWSKIZ7KSClXDpiViKcDA2WbWDNuWlm2Tg43Kqtpr7aNzyytui4/R6GLVhGVh4lZVoSSzUF7dbUCrLZHW5osv6TE6V0TPqNKaF7TEcoGBC+tCjRYZNPQp3DLv2r/hNgMXAoEdTADUYjOV538kCqsZXnRYf0f6rNyWyeVZfO0zOuZYNTOfidE41/S2mXYRi0YXqCcs+voMp1o4VklzWlJWUfeM+9ogBiumwlDxcI38K2s4Fdgik4/6HZzJUI5TlnWKL++fXzHgK7hhuG9hUPOc65Dr0WpuqPPuiP8jtbAZSGtzYkloBW/KHr+FQmphwRPEMTLFaJXZUZXDfDuXCHUvpUcXqMYtCxq0YqArwTRp35x1/Fq+XDPvvdCI38K6LmeWtiNR9LHIoCt915nEHWEPEIhaAqAWm6lav2rBKOyZt+mVpPEWvIutc+wJuMYy8i2so0rygpSM8v4FG3URbL/maX92Qp6E/MO4e/2e7FV2fwaUqRi0WSjjbGyVfsW5x6EWuB6Im6ct+ro0p1qMKuMdvsWippI8koYpdciRoi656jOTuFqQz+Q2GpZN/VI8tczGSet0UyZxIauoe255grwHo3FqhhctVpvF0CgmqQhecH+FJRL04gOHgMB7TADUYjMWwb9aoOGXJc8wwIpeiXeE160WJZ7aE6m+rT8DyvYO0qAIxLACWfx1qwVTMeyhPf6eQC+1iK/VLdu0VUgtWPndXoGWlaXl6bZcSmqplRrzss1zCXEE0F9hKZdvpnnAtUAgqgiAWmymOlmVGrPP9y1wb0CvEomdAQC+gMsTcHkZjgjtetUipU5vXXR2qIPoRIRGonBvYLjWFc/gi/HiCJLw+VrrVgt+29QKJcDgt1CB1aJjxjrRVuQIsfDFmYiwgMtJJfsQDFGbwTZnNKFhNEp4HNQCRBEIrJMAqMWm1AJ1b92DIVhplaI0xTHkwlGhqLWCtMwqJuC6BqaCqgWRJh2jMUubp5cWtDXksSm/5pW+uZEotmOMyPl2OrdcWcl3bKMhJqrBTePynKcFVwub06nCs50q7ZtbNvWEtCxoILXA4lH8Q69E8RLnL54noEakxapxy3yfPKXw1pRtkhwAR5f4LSyRoDtl2AACQADUYlOmgVF4y4jPbqpSqLrG55ZN/ZVOSUgt6pi0Lhp66xVFhbLKuls6EzJbIfoWyysWo7atWi6XylVd4+Zlm16Fz0aNfHvNqNaarbNataKmulFDnseVJNfM2+b0HUppYWmRXNU1YbZOt+Xi0hhcLVaWrNP9KoVcWl6j6jNYV8zDtQKPsiTJewzTejVpRhM6IaBa0JgSFPSe1agVsvxCeXWL1mgzD9cSCs2t0y2YNFWoRlKl3TPWiSZHhl239ltY5wnM0vZpiHJv6gFxoYZEooEAqMUma5HFld/SzZqtizMG7a0qik1PK6rv10/PoXcppvXDHcpc13t2KXW6BcesJ7ZyeFGPzywSKEfNOsdsou4560S/Gn+NwGozG8f7lYWEBYz448cuVWkM84uWhWl9b72M5NCwuOVtg+Mz8zbLwuykXtNW6S6sqMmwqHdEudXjDnvNym0xLGhqnFFum76rRWOYNVttloVpXbtC7DkoRMdSarVo/msJNfTNVAya5nrLiZ3xCu3CoqbKRZKGlSq7dVMo5TnjhLarrpTIMFsxODs3XJvhJObxr8Md8VtYvFUw5b2mJfcUrIiTd3lIcCMgsD0JgFpsUi3CfrmPOVHbs+mEmCs0GcxjTtQOMYsM0S2jbaarJIq+GrlDyIfYtOC0LSYAahF2c7/JBEEtNgkwXJezijomDS3UV8fB2gKB95gAqEW4jEu40mHlt+in+hTeYzVb3I8I1+0Y5T1TE7dCimm/x89huGhDOkAgcgRALcJl5SEdIAAEgEA0EwC1iObajVwvA1IGAkDgfSMAagFqAQSAABAAAsEJgFoEZ/S+9SCgvEAACAABbwI7Xi28iwR7gAAQAAJAIOwEQC3AtwACQAAIAIHgBEAtgjMKu0RDgkAACACBHUcA1ALUAggAASAABIITiBq1YNPh3S4gAASAABCIGIEoUYu4T6cuf/fmZ/fu5+Tydpx/BxkGAkAACGx/AlGiFjjoLM6N/3flN72JEZPW7V+dkEMgAASAQIQIRJNaYMyzU1f09zl7gg/ARYgmJAsEgAAQiFYC0aQWbM6NV5d71UzwLYAAEAACQCDcBKJJLYoLfvOmur44WoUdygUEgAAQeIcEokktThePvqk6m/UOacKtgQAQAALRSiCa1IJ3uOPN5Xu9HyVzorW2oFxAAAgAgXdFIJrUAqMlK6Ujb65M/rmyHAQDQv1AAAgAgXASiCa14HBu/OnKqEFYfg5LDCejd6XkcF8gAASAwPYhEE1qgeIWn3wq3D5wISdAAAgAgaghEE1qUS4ZeVN9CeZEgV8FBIAAEAg/gWhSC/x9i3vquHDPMo6argEUBAgAASCwYQLRpBbY7kp4lzv8HYoNty24EAgAgWgiEEVqEV+c1fGny/fawbeIpgYKZQECQGCbEIgStYg7O3VJ/6dPOroOJrO3CVnIBhAAAkAgmghEiVpEU5VAWYAAEAAC25AAqAUM9AMBIAAEgEBwAqAWwRltQ5GHLAEBIAAEtpgAqAWoBRAAAkAACAQnAGoRnNEWCzjcDggAASCwDQmAWoBaAAEgAASAQHACoBbBGW1DkYcsAQEgAAS2mACoBagFEAACQAAIBCcAahGc0RYLONwOCAABILANCYBagFoAASAABIBAcAKgFsEZbUORhywBASAABLaYAKgFqAUQAAJAAAgEJwBqEZzRFgs43A4IAAEgsA0JgFqAWgABIAAEgEBwAqAWwRltQ5GHLAEBIAAEtpgAqAWoBRAAAkAACAQnAGoRnNEWCzjcDggAASCwDQmAWoBaAAEgAASAQHACoBbBGW1DkYcsAQEgAAS2mACoBagFEAACQAAIBCcAahGc0RYLONwOCAABILANCYBagFoAASAABIBAcAKgFsEZbUORhywBASAABLaYAKgFqAUQAAJAAAgEJwBqEZzRFgs43A4IAAEgsA0JgFqAWgABIAAEgEBwAqAWwRltQ5GHLAEBIAAEtpgAqAWoBRAAAkAACAQnEDa12GKVg9sBASAABIDAVhIAtQiuqFtZH3AvIAAEgMD2JABqAWoBBIAAEAACwQmAWgRntD11HnIFBIAAENhKAuFXi90xrK0sANwLCAABIAAEtoBA2NVC9suT0zOnxu7mnk6mQ7cdCAABIAAEooRA2NUCcdkdf2no9HQPJ2UL5A5uAQSAABAAAltAICJqQaMfaz5p1PIObUEB4BZAAAgAASCwBQQioxaxl7RnHjezIIARJR7oFjREuAUQAALbnEBE1GL3R3dmTt85EQO2EggAASAABKKE+EI6iwAAASdJREFUQETUIiFtYOZkawFEuYEAEAACQCBaCERELWgffqE/8/irA8IEcC+ipaFscx8ZsgcEgECkCURGLeisrENDk2eMcye+yAJzCQSAABAAAjufQGTUIhbNoNWK/m9R4qHdO59RpBUb0gcCQAAIbH8CEVGLhAMDM6c6imAYCpQSCAABIBAtBCKiFnGcOzOnu2BO1PbvLEAOgQAQAAIhEoiIWtDQ+xZPfrkP3reIkplzITYmOA0IAIEoJhAZtaAfU5cbtYf4UQwOigYEgAAQeK8IREItWMn7bmhPPwbf4r1qSVBYIAAEoptA2NVC1lz+xHBioDktPy5aYjvR3QKgdEAACACBUAiEXS1gpB4IAAEgAASikACoRRRWaijdBDgHCAABILAuAv8fBbnbf8dvkWoAAAAASUVORK5CYII=;" vertex="1" parent="1">
                    <mxGeometry x="-810" y="590" width="377" height="142.36" as="geometry"/>
                </mxCell>
                <mxCell id="109" value="3ed2a58" style="text;html=1;align=center;verticalAlign=middle;resizable=0;points=[];autosize=1;strokeColor=none;" vertex="1" parent="1">
                    <mxGeometry x="-200" y="510" width="60" height="20" as="geometry"/>
                </mxCell>
            </root>
        </mxGraphModel>
    </diagram>
</mxfile>